<?xml version="1.0" standalone="no"?>
<!DOCTYPE svg PUBLIC "-//W3C//DTD SVG 20010904//EN"
 "http://www.w3.org/TR/2001/REC-SVG-20010904/DTD/svg10.dtd">
<svg version="1.0" xmlns="http://www.w3.org/2000/svg"
 width="500.000000pt" height="500.000000pt" viewBox="0 0 500.000000 500.000000"
 preserveAspectRatio="xMidYMid meet">
<metadata>
Created by potrace 1.11, written by Peter Selinger 2001-2013
</metadata>
<g transform="translate(0.000000,500.000000) scale(0.100000,-0.100000)"
fill="#000000" stroke="none">
<path d="M1765 4013 c-72 -15 -181 -47 -222 -65 -210 -92 -407 -290 -492 -495
-68 -166 -66 -134 -66 -913 l0 -705 28 -95 c117 -392 397 -671 748 -745 58
-12 186 -15 742 -15 626 0 678 2 759 20 324 71 556 270 688 590 23 57 27 75
18 82 -7 4 -491 8 -1076 8 -1182 0 -1088 -6 -1165 68 -41 40 -67 108 -67 176
1 87 20 110 436 526 216 218 394 399 394 403 0 4 -141 7 -312 7 -284 0 -317 2
-353 19 -112 52 -163 182 -114 291 26 58 53 87 111 116 l47 24 621 0 c504 0
627 -3 654 -14 48 -20 107 -75 127 -121 26 -57 25 -154 -2 -208 -14 -27 -156
-177 -400 -422 -208 -209 -379 -384 -379 -388 0 -5 174 -7 388 -5 l387 4 95
33 c157 54 290 139 394 252 135 146 206 291 241 493 19 111 19 176 0 294 -27
166 -81 294 -178 424 -127 170 -304 286 -521 342 l-98 26 -707 -1 c-388 -1
-715 -3 -726 -6z"/>
</g>
</svg>
